<mxfile host="app.diagrams.net" modified="2023-11-16T02:15:29.282Z" agent="Mozilla/5.0 (X11; Linux x86_64) AppleWebKit/537.36 (KHTML, like Gecko) Chrome/119.0.0.0 Safari/537.36" etag="ZdWVlyhUCjfQFtAnQ0Lc" version="22.1.2" type="device">
  <diagram name="Page-1" id="s2vhKnBZrGIqaXIZNh1d">
    <mxGraphModel dx="819" dy="456" grid="1" gridSize="10" guides="1" tooltips="1" connect="1" arrows="1" fold="1" page="1" pageScale="1" pageWidth="850" pageHeight="1100" math="0" shadow="0">
      <root>
        <mxCell id="0" />
        <mxCell id="1" parent="0" />
        <mxCell id="4e4jSEu4LUlDjVK4F76E-1" value="&lt;b&gt;State 0&lt;/b&gt;" style="rounded=1;whiteSpace=wrap;html=1;" parent="1" vertex="1">
          <mxGeometry x="80" y="240" width="120" height="40" as="geometry" />
        </mxCell>
        <mxCell id="4e4jSEu4LUlDjVK4F76E-2" value="&lt;b&gt;State 1&lt;/b&gt;" style="rounded=1;whiteSpace=wrap;html=1;" parent="1" vertex="1">
          <mxGeometry x="240" y="240" width="120" height="40" as="geometry" />
        </mxCell>
        <mxCell id="4e4jSEu4LUlDjVK4F76E-3" value="&lt;b&gt;State 3&lt;/b&gt;" style="rounded=1;whiteSpace=wrap;html=1;" parent="1" vertex="1">
          <mxGeometry x="560" y="240" width="120" height="40" as="geometry" />
        </mxCell>
        <mxCell id="4e4jSEu4LUlDjVK4F76E-4" value="WAITING" style="rounded=1;whiteSpace=wrap;html=1;fillColor=#f5f5f5;strokeColor=#666666;fontStyle=1;fontColor=#333333;" parent="1" vertex="1">
          <mxGeometry x="80" y="320" width="120" height="40" as="geometry" />
        </mxCell>
        <mxCell id="4e4jSEu4LUlDjVK4F76E-5" value="LOCKING" style="rounded=1;whiteSpace=wrap;html=1;fillColor=#f5f5f5;strokeColor=#666666;fontStyle=1;fontColor=#333333;" parent="1" vertex="1">
          <mxGeometry x="240" y="320" width="120" height="40" as="geometry" />
        </mxCell>
        <mxCell id="4e4jSEu4LUlDjVK4F76E-6" value="FINISH" style="rounded=1;whiteSpace=wrap;html=1;fillColor=#f5f5f5;strokeColor=#666666;fontStyle=1;fontColor=#333333;" parent="1" vertex="1">
          <mxGeometry x="560" y="320" width="120" height="40" as="geometry" />
        </mxCell>
        <mxCell id="4e4jSEu4LUlDjVK4F76E-14" value="" style="endArrow=classic;html=1;dashed=1;strokeColor=#000000;" parent="1" edge="1">
          <mxGeometry width="50" height="50" relative="1" as="geometry">
            <mxPoint x="60" y="200" as="sourcePoint" />
            <mxPoint x="700" y="200" as="targetPoint" />
          </mxGeometry>
        </mxCell>
        <mxCell id="4e4jSEu4LUlDjVK4F76E-25" value="" style="rounded=1;whiteSpace=wrap;html=1;fillColor=none;" parent="1" vertex="1">
          <mxGeometry x="87.5" y="140" width="105" height="40" as="geometry" />
        </mxCell>
        <mxCell id="4e4jSEu4LUlDjVK4F76E-28" value="" style="shape=image;html=1;verticalAlign=top;verticalLabelPosition=bottom;labelBackgroundColor=#ffffff;imageAspect=0;aspect=fixed;image=https://cdn4.iconfinder.com/data/icons/user-interface-181/32/Clock-128.png" parent="1" vertex="1">
          <mxGeometry x="290" y="150" width="20" height="20" as="geometry" />
        </mxCell>
        <mxCell id="4e4jSEu4LUlDjVK4F76E-29" value="" style="shape=image;html=1;verticalAlign=top;verticalLabelPosition=bottom;labelBackgroundColor=#ffffff;imageAspect=0;aspect=fixed;image=https://cdn4.iconfinder.com/data/icons/user-interface-181/32/Clock-128.png" parent="1" vertex="1">
          <mxGeometry x="610" y="150" width="20" height="20" as="geometry" />
        </mxCell>
        <mxCell id="4e4jSEu4LUlDjVK4F76E-30" value="" style="endArrow=none;html=1;dashed=1;strokeColor=#666666;" parent="1" edge="1">
          <mxGeometry width="50" height="50" relative="1" as="geometry">
            <mxPoint x="220" y="120" as="sourcePoint" />
            <mxPoint x="220" y="400" as="targetPoint" />
          </mxGeometry>
        </mxCell>
        <mxCell id="4e4jSEu4LUlDjVK4F76E-31" value="" style="endArrow=none;html=1;dashed=1;strokeColor=#666666;" parent="1" edge="1">
          <mxGeometry width="50" height="50" relative="1" as="geometry">
            <mxPoint x="380" y="120" as="sourcePoint" />
            <mxPoint x="380" y="400" as="targetPoint" />
          </mxGeometry>
        </mxCell>
        <mxCell id="4e4jSEu4LUlDjVK4F76E-32" value="" style="endArrow=none;html=1;dashed=1;strokeColor=#666666;" parent="1" edge="1">
          <mxGeometry width="50" height="50" relative="1" as="geometry">
            <mxPoint x="700" y="120" as="sourcePoint" />
            <mxPoint x="700" y="400" as="targetPoint" />
          </mxGeometry>
        </mxCell>
        <mxCell id="4e4jSEu4LUlDjVK4F76E-41" value="&lt;b style=&quot;font-size: 11px;&quot;&gt;Blockchain Time&lt;/b&gt;" style="text;html=1;strokeColor=none;fillColor=none;align=center;verticalAlign=middle;whiteSpace=wrap;rounded=0;fontSize=11;" parent="1" vertex="1">
          <mxGeometry x="105" y="145" width="70" height="30" as="geometry" />
        </mxCell>
        <mxCell id="DceNYoMHTKdl2nAy_YGz-1" value="&lt;b&gt;State 2&lt;/b&gt;" style="rounded=1;whiteSpace=wrap;html=1;" vertex="1" parent="1">
          <mxGeometry x="400" y="240" width="120" height="40" as="geometry" />
        </mxCell>
        <mxCell id="DceNYoMHTKdl2nAy_YGz-2" value="DELIVERY" style="rounded=1;whiteSpace=wrap;html=1;fillColor=#f5f5f5;strokeColor=#666666;fontStyle=1;fontColor=#333333;" vertex="1" parent="1">
          <mxGeometry x="400" y="320" width="120" height="40" as="geometry" />
        </mxCell>
        <mxCell id="DceNYoMHTKdl2nAy_YGz-3" value="" style="endArrow=none;html=1;dashed=1;strokeColor=#666666;" edge="1" parent="1">
          <mxGeometry width="50" height="50" relative="1" as="geometry">
            <mxPoint x="540" y="120" as="sourcePoint" />
            <mxPoint x="540" y="400" as="targetPoint" />
          </mxGeometry>
        </mxCell>
        <mxCell id="DceNYoMHTKdl2nAy_YGz-4" value="" style="shape=image;html=1;verticalAlign=top;verticalLabelPosition=bottom;labelBackgroundColor=#ffffff;imageAspect=0;aspect=fixed;image=https://cdn4.iconfinder.com/data/icons/user-interface-181/32/Clock-128.png" vertex="1" parent="1">
          <mxGeometry x="450" y="150" width="20" height="20" as="geometry" />
        </mxCell>
        <mxCell id="DceNYoMHTKdl2nAy_YGz-5" value="" style="endArrow=none;html=1;dashed=1;strokeColor=#666666;" edge="1" parent="1">
          <mxGeometry width="50" height="50" relative="1" as="geometry">
            <mxPoint x="60" y="120" as="sourcePoint" />
            <mxPoint x="60" y="400" as="targetPoint" />
          </mxGeometry>
        </mxCell>
      </root>
    </mxGraphModel>
  </diagram>
</mxfile>
